<svg width="25" height="24" viewBox="0 0 25 24" fill="none" xmlns="http://www.w3.org/2000/svg">
<g clip-path="url(#clip0_269_1477)">
<g filter="url(#filter0_d_269_1477)">
<path d="M6.53395 17.93C6.14495 17.4298 5.65871 16.4157 4.81126 15.1514C4.32502 14.4568 3.13025 13.137 2.76905 12.4563C2.50866 12.0426 2.4331 11.5389 2.56066 11.067C2.77872 10.1698 3.62978 9.57469 4.5473 9.67775C5.25694 9.8203 5.90909 10.1681 6.42281 10.678C6.78149 11.0159 7.11142 11.383 7.40918 11.7755C7.63147 12.0534 7.68704 12.1645 7.9371 12.4841C8.18717 12.8036 8.35388 13.1231 8.22885 12.6508C8.1316 11.9561 7.96489 10.7892 7.72871 9.74721C7.54811 8.95533 7.50643 8.8303 7.33972 8.23292C7.17301 7.63554 7.07576 7.1354 6.89516 6.45466C6.73007 5.78583 6.60022 5.10879 6.50616 4.42634C6.33105 3.55347 6.45845 2.64699 6.86737 1.8562C7.35277 1.39965 8.06482 1.27915 8.67341 1.55056C9.28552 2.00254 9.7419 2.63371 9.97932 3.35661C10.3434 4.24627 10.5864 5.1808 10.7017 6.13513C10.924 7.52439 11.3547 9.55272 11.3686 9.9695C11.3686 9.45547 11.2713 8.37184 11.3686 7.8856C11.4649 7.37869 11.8173 6.95801 12.2994 6.77419C12.7131 6.64725 13.1508 6.6187 13.5775 6.69084C14.0082 6.78088 14.3898 7.02863 14.6472 7.38547C14.9691 8.19595 15.1477 9.05619 15.1752 9.92782C15.2124 9.16454 15.343 8.4087 15.5642 7.67721C15.7963 7.35011 16.1353 7.11427 16.5227 7.01037C16.982 6.92639 17.4527 6.92639 17.912 7.01037C18.2886 7.13628 18.6181 7.37368 18.8567 7.69111C19.1509 8.4279 19.329 9.20588 19.3846 9.99728C19.3846 10.1918 19.4819 9.45547 19.7875 8.96923C19.9463 8.49771 20.3447 8.14674 20.8324 8.04853C21.3202 7.95032 21.8233 8.11979 22.1522 8.49309C22.4812 8.8664 22.5859 9.38684 22.4271 9.85835C22.4271 10.7614 22.4271 10.7197 22.4271 11.331C22.4271 11.9422 22.4271 12.4841 22.4271 12.9981C22.3765 13.8111 22.265 14.6191 22.0937 15.4154C21.8519 16.1199 21.5154 16.7883 21.0934 17.4021C20.4189 18.1522 19.8615 19 19.4402 19.9166C19.3357 20.372 19.289 20.8388 19.3013 21.3059C19.2999 21.7374 19.3559 22.1672 19.468 22.584C18.9 22.644 18.3272 22.644 17.7592 22.584C17.2174 22.5006 16.5505 21.417 16.3699 21.0836C16.2806 20.9046 16.0977 20.7914 15.8976 20.7914C15.6975 20.7914 15.5146 20.9046 15.4252 21.0836C15.1196 21.6115 14.4389 22.5701 13.9665 22.6257C13.0357 22.7368 11.1185 22.6257 9.60422 22.6257C9.60422 22.6257 9.85429 21.2364 9.28469 20.7363C8.71509 20.2361 8.1316 19.6527 7.70093 19.2637L6.53395 17.93Z" fill="white"/>
<path fill-rule="evenodd" clip-rule="evenodd" d="M6.53395 17.93C6.14495 17.4298 5.65871 16.4157 4.81126 15.1514C4.32502 14.4568 3.13025 13.137 2.76905 12.4563C2.50866 12.0426 2.4331 11.5389 2.56066 11.067C2.77872 10.1698 3.62978 9.57469 4.5473 9.67775C5.25694 9.8203 5.90909 10.1681 6.42281 10.678C6.78149 11.0159 7.11142 11.383 7.40918 11.7755C7.63147 12.0534 7.68704 12.1645 7.9371 12.4841C8.18717 12.8036 8.35388 13.1231 8.22885 12.6508C8.1316 11.9561 7.96489 10.7892 7.72871 9.74721C7.54811 8.95533 7.50643 8.8303 7.33972 8.23292C7.17301 7.63554 7.07576 7.1354 6.89516 6.45466C6.73007 5.78583 6.60022 5.10879 6.50616 4.42634C6.33105 3.55347 6.45845 2.64699 6.86737 1.8562C7.35277 1.39965 8.06482 1.27915 8.67341 1.55056C9.28552 2.00254 9.7419 2.63371 9.97932 3.35661C10.3434 4.24627 10.5864 5.1808 10.7017 6.13513C10.924 7.52439 11.3547 9.55272 11.3686 9.9695C11.3686 9.45547 11.2713 8.37184 11.3686 7.8856C11.4649 7.37869 11.8173 6.95801 12.2994 6.77419C12.7131 6.64725 13.1508 6.6187 13.5775 6.69084C14.0082 6.78088 14.3898 7.02863 14.6472 7.38547C14.9691 8.19595 15.1477 9.05619 15.1752 9.92782C15.2124 9.16454 15.343 8.4087 15.5642 7.67721C15.7963 7.35011 16.1353 7.11427 16.5227 7.01037C16.982 6.92639 17.4527 6.92639 17.912 7.01037C18.2886 7.13628 18.6181 7.37368 18.8567 7.69111C19.1509 8.42789 19.329 9.20588 19.3846 9.99728C19.3846 10.1918 19.4819 9.45547 19.7875 8.96923C19.9463 8.49771 20.3447 8.14674 20.8324 8.04853C21.3202 7.95032 21.8233 8.11979 22.1522 8.49309C22.4812 8.8664 22.5859 9.38684 22.4271 9.85835C22.4271 10.7614 22.4271 10.7197 22.4271 11.331C22.4271 11.9422 22.4271 12.4841 22.4271 12.9981C22.3765 13.8111 22.265 14.6191 22.0937 15.4154C21.8519 16.1199 21.5154 16.7883 21.0934 17.4021C20.4189 18.1522 19.8615 19 19.4402 19.9166C19.3357 20.372 19.289 20.8388 19.3013 21.3059C19.2999 21.7374 19.3559 22.1672 19.468 22.584C18.9 22.644 18.3272 22.644 17.7592 22.584C17.2174 22.5006 16.5505 21.417 16.3699 21.0836C16.2806 20.9046 16.0977 20.7914 15.8976 20.7914C15.6975 20.7914 15.5146 20.9046 15.4252 21.0836C15.1196 21.6115 14.4389 22.5701 13.9665 22.6257C13.0357 22.7368 11.1185 22.6257 9.60422 22.6257C9.60422 22.6257 9.85429 21.2364 9.28469 20.7363C8.71509 20.2361 8.1316 19.6527 7.70093 19.2637L6.53395 17.93Z" stroke="black" stroke-width="0.75" stroke-linecap="round" stroke-linejoin="round"/>
<path d="M18.3134 18.6882V13.8927C18.3134 13.6057 18.0802 13.373 17.7925 13.373C17.5047 13.373 17.2715 13.6057 17.2715 13.8927V18.6882C17.2715 18.9752 17.5047 19.2079 17.7925 19.2079C18.0802 19.2079 18.3134 18.9752 18.3134 18.6882Z" fill="black"/>
<path d="M15.5639 18.6864L15.5361 13.8885C15.5344 13.6022 15.2998 13.3714 15.0121 13.373C14.7244 13.3747 14.4925 13.6081 14.4941 13.8945L14.5219 18.6924C14.5236 18.9787 14.7582 19.2095 15.0459 19.2079C15.3336 19.2062 15.5655 18.9728 15.5639 18.6864Z" fill="black"/>
<path d="M11.7149 13.8995L11.7426 18.6875C11.7443 18.9766 11.9789 19.2096 12.2666 19.2079C12.5544 19.2062 12.7862 18.9705 12.7846 18.6814L12.7568 13.8934C12.7551 13.6043 12.5205 13.3713 12.2328 13.373C11.9451 13.3747 11.7132 13.6104 11.7149 13.8995Z" fill="black"/>
</g>
</g>
<defs>
<filter id="filter0_d_269_1477" x="1.325" y="1.03217" width="22.35" height="23.8179" filterUnits="userSpaceOnUse" color-interpolation-filters="sRGB">
<feFlood flood-opacity="0" result="BackgroundImageFix"/>
<feColorMatrix in="SourceAlpha" type="matrix" values="0 0 0 0 0 0 0 0 0 0 0 0 0 0 0 0 0 0 127 0" result="hardAlpha"/>
<feOffset dy="1"/>
<feGaussianBlur stdDeviation="0.4"/>
<feColorMatrix type="matrix" values="0 0 0 0 0 0 0 0 0 0 0 0 0 0 0 0 0 0 0.5 0"/>
<feBlend mode="normal" in2="BackgroundImageFix" result="effect1_dropShadow_269_1477"/>
<feBlend mode="normal" in="SourceGraphic" in2="effect1_dropShadow_269_1477" result="shape"/>
</filter>
<clipPath id="clip0_269_1477">
<rect width="24" height="24" fill="white" transform="translate(0.5)"/>
</clipPath>
</defs>
</svg>
