<svg
  width="10"
  height="13"
  viewBox="0 0 10 13"
  fill="none"
  xmlns="http://www.w3.org/2000/svg"
>
<path
    fill-rule="evenodd"
    clip-rule="evenodd"
    d="M5.53148 2.8777e-05C5.89027 -0.00332435 6.1784 0.284807 6.17504 0.643588L6.08042 10.7686L8.89528 7.95373C9.15134 7.69767 9.56267 7.69382 9.81399 7.94515C10.0653 8.19647 10.0615 8.6078 9.80541 8.86386L5.87119 12.7981C5.61513 13.0541 5.2038 13.058 4.95248 12.8067L1.09112 8.94531C0.839796 8.69398 0.84364 8.28266 1.09971 8.02659C1.35578 7.77052 1.7671 7.76668 2.01842 8.018L4.78116 10.7807L4.87578 0.655731C4.87914 0.29695 5.1727 0.00338185 5.53148 2.8777e-05Z"
    fill="#0B44A0"
  />
</svg>
