<svg width="32" height="32" viewBox="0 0 32 32" fill="none" xmlns="http://www.w3.org/2000/svg">
<path d="M17.3708 2.66663C18.8708 2.67063 19.6321 2.67863 20.2894 2.69729L20.5481 2.70663C20.8468 2.71729 21.1414 2.73063 21.4974 2.74663C22.9161 2.81329 23.8841 3.03729 24.7334 3.36663C25.6134 3.70529 26.3548 4.16396 27.0961 4.90396C27.7744 5.57027 28.299 6.37659 28.6334 7.26663C28.9628 8.11596 29.1868 9.08396 29.2534 10.504C29.2694 10.8586 29.2828 11.1533 29.2934 11.4533L29.3014 11.712C29.3214 12.368 29.3294 13.1293 29.3321 14.6293L29.3334 15.624V17.3706C29.3367 18.3432 29.3265 19.3157 29.3028 20.288L29.2948 20.5466C29.2841 20.8466 29.2708 21.1413 29.2548 21.496C29.1881 22.916 28.9614 23.8826 28.6334 24.7333C28.299 25.6233 27.7744 26.4297 27.0961 27.096C26.4298 27.7742 25.6235 28.2989 24.7334 28.6333C23.8841 28.9626 22.9161 29.1866 21.4974 29.2533L20.5481 29.2933L20.2894 29.3013C19.6321 29.32 18.8708 29.3293 17.3708 29.332L16.3761 29.3333H14.6308C13.6578 29.3367 12.6848 29.3265 11.7121 29.3026L11.4534 29.2946C11.1369 29.2826 10.8205 29.2689 10.5041 29.2533C9.08544 29.1866 8.11744 28.9626 7.26677 28.6333C6.37721 28.2987 5.57136 27.7741 4.90544 27.096C4.2267 26.4298 3.70159 25.6235 3.36677 24.7333C3.03744 23.884 2.81344 22.916 2.74677 21.496L2.70677 20.5466L2.70011 20.288C2.67553 19.3157 2.66442 18.3432 2.66677 17.3706V14.6293C2.66308 13.6568 2.67286 12.6842 2.69611 11.712L2.70544 11.4533C2.71611 11.1533 2.72944 10.8586 2.74544 10.504C2.81211 9.08396 3.03611 8.11729 3.36544 7.26663C3.70103 6.37622 4.22707 5.56987 4.90677 4.90396C5.57231 4.22602 6.37769 3.70139 7.26677 3.36663C8.11744 3.03729 9.08411 2.81329 10.5041 2.74663C10.8588 2.73063 11.1548 2.71729 11.4534 2.70663L11.7121 2.69863C12.6844 2.67494 13.6569 2.66471 14.6294 2.66796L17.3708 2.66663ZM16.0001 9.33329C14.232 9.33329 12.5363 10.0357 11.2861 11.2859C10.0358 12.5362 9.33344 14.2318 9.33344 16C9.33344 17.7681 10.0358 19.4638 11.2861 20.714C12.5363 21.9642 14.232 22.6666 16.0001 22.6666C17.7682 22.6666 19.4639 21.9642 20.7142 20.714C21.9644 19.4638 22.6668 17.7681 22.6668 16C22.6668 14.2318 21.9644 12.5362 20.7142 11.2859C19.4639 10.0357 17.7682 9.33329 16.0001 9.33329ZM16.0001 12C16.5254 11.9999 17.0456 12.1032 17.5309 12.3042C18.0162 12.5051 18.4572 12.7997 18.8287 13.1711C19.2002 13.5424 19.4949 13.9833 19.696 14.4686C19.8971 14.9539 20.0007 15.474 20.0008 15.9993C20.0009 16.5246 19.8975 17.0447 19.6965 17.5301C19.4956 18.0154 19.201 18.4564 18.8297 18.8279C18.4583 19.1994 18.0174 19.4941 17.5321 19.6952C17.0469 19.8963 16.5267 19.9999 16.0014 20C14.9406 20 13.9232 19.5785 13.173 18.8284C12.4229 18.0782 12.0014 17.0608 12.0014 16C12.0014 14.9391 12.4229 13.9217 13.173 13.1715C13.9232 12.4214 14.9406 12 16.0014 12M23.0014 7.33329C22.5594 7.33329 22.1355 7.50889 21.8229 7.82145C21.5104 8.13401 21.3348 8.55793 21.3348 8.99996C21.3348 9.44199 21.5104 9.86591 21.8229 10.1785C22.1355 10.491 22.5594 10.6666 23.0014 10.6666C23.4435 10.6666 23.8674 10.491 24.18 10.1785C24.4925 9.86591 24.6681 9.44199 24.6681 8.99996C24.6681 8.55793 24.4925 8.13401 24.18 7.82145C23.8674 7.50889 23.4435 7.33329 23.0014 7.33329Z" fill="white"/>
</svg>
