<svg width="30" height="30" viewBox="0 0 30 30" fill="none" xmlns="http://www.w3.org/2000/svg">
<path d="M14.9633 0.536621C11.0353 0.536621 10.5427 0.553285 9.00005 0.623643C7.46061 0.693872 6.40924 0.938404 5.48924 1.29588C4.53815 1.6655 3.73157 2.16007 2.92753 2.96411C2.12345 3.76815 1.62888 4.57482 1.2593 5.5259C0.90174 6.44586 0.657294 7.49723 0.586979 9.03667C0.516621 10.5793 0.5 11.0719 0.5 14.9999C0.5 18.9278 0.516621 19.4204 0.586979 20.9631C0.657294 22.5025 0.90174 23.5539 1.2593 24.4738C1.62892 25.4249 2.12349 26.2315 2.92753 27.0356C3.73162 27.8397 4.53815 28.3342 5.48924 28.7038C6.40924 29.0613 7.46061 29.3058 9.00005 29.3761C10.5427 29.4464 11.0353 29.4631 14.9633 29.4631C18.8912 29.4631 19.3838 29.4464 20.9264 29.3761C22.4659 29.3059 23.5172 29.0613 24.4372 28.7038C25.3883 28.3342 26.1949 27.8397 26.999 27.0356C27.803 26.2315 28.2976 25.4249 28.6672 24.4738C29.0247 23.5539 29.2692 22.5025 29.3395 20.9631C29.4098 19.4204 29.4265 18.9278 29.4265 14.9999C29.4265 11.0719 29.4098 10.5793 29.3395 9.03667C29.2692 7.49723 29.0247 6.44586 28.6672 5.5259C28.2976 4.57482 27.803 3.76815 26.999 2.96411C26.1949 2.16007 25.3883 1.6655 24.4372 1.29588C23.5172 0.938404 22.4659 0.693872 20.9264 0.623643C19.3838 0.553285 18.8912 0.536621 14.9633 0.536621ZM14.9633 3.14259C18.8251 3.14259 19.2825 3.15736 20.8076 3.22694C22.2178 3.29123 22.9836 3.52685 23.4932 3.72492C24.1684 3.98732 24.6502 4.3007 25.1562 4.80682C25.6624 5.31293 25.9758 5.79476 26.2382 6.46984C26.4363 6.97949 26.6719 7.74533 26.7362 9.15547C26.8057 10.6806 26.8205 11.138 26.8205 14.9999C26.8205 18.8617 26.8057 19.3191 26.7362 20.8443C26.6719 22.2544 26.4363 23.0202 26.2382 23.5298C25.9758 24.205 25.6624 24.6868 25.1562 25.1929C24.6502 25.699 24.1683 26.0124 23.4933 26.2748C22.9836 26.4729 22.2178 26.7085 20.8076 26.7728C19.2828 26.8424 18.8254 26.8571 14.9632 26.8571C11.1011 26.8571 10.6438 26.8424 9.11885 26.7727C7.70867 26.7085 6.94287 26.4729 6.43326 26.2748C5.7581 26.0124 5.27631 25.699 4.77024 25.1929C4.26413 24.6868 3.9507 24.205 3.6883 23.5299C3.49023 23.0202 3.25465 22.2544 3.19032 20.8443C3.12074 19.3191 3.10597 18.8617 3.10597 14.9999C3.10597 11.138 3.12074 10.6806 3.19032 9.15547C3.25465 7.74529 3.49023 6.97949 3.6883 6.46989C3.9507 5.79472 4.26413 5.31293 4.7702 4.80686C5.27631 4.3007 5.75814 3.98732 6.43322 3.72492C6.94287 3.52685 7.70871 3.29123 9.11885 3.22694C10.644 3.15736 11.1014 3.14259 14.9632 3.14259" fill="white"/>
<path d="M14.9633 19.8212C12.3006 19.8212 10.1422 17.6627 10.1422 15.0001C10.1422 12.3374 12.3006 10.179 14.9633 10.179C17.6259 10.179 19.7844 12.3374 19.7844 15.0001C19.7844 17.6627 17.6259 19.8212 14.9633 19.8212ZM14.9633 7.57301C10.8614 7.57301 7.53619 10.8982 7.53619 15.0001C7.53619 19.102 10.8614 22.4271 14.9633 22.4271C19.0651 22.4271 22.3903 19.102 22.3903 15.0001C22.3903 10.8982 19.0651 7.57301 14.9633 7.57301ZM24.4194 7.27957C24.4194 8.23814 23.6423 9.01514 22.6838 9.01514C21.7253 9.01514 20.9482 8.23814 20.9482 7.27957C20.9482 6.32103 21.7253 5.54395 22.6838 5.54395C23.6423 5.54395 24.4194 6.32103 24.4194 7.27957Z" fill="white"/>
</svg>
