<svg width="26" height="24" viewBox="0 0 26 24" fill="none" xmlns="http://www.w3.org/2000/svg">
<path d="M5.75338 2.66654C5.75302 3.37378 5.47173 4.05192 4.97139 4.55176C4.47104 5.05161 3.79262 5.33222 3.08538 5.33187C2.37813 5.33152 1.7 5.05022 1.20015 4.54988C0.700303 4.04953 0.419691 3.37111 0.420044 2.66387C0.420398 1.95662 0.701688 1.27849 1.20204 0.778641C1.70238 0.278794 2.3808 -0.00181813 3.08804 -0.00146451C3.79529 -0.00111089 4.47342 0.28018 4.97327 0.780527C5.47312 1.28087 5.75373 1.95929 5.75338 2.66654ZM5.83338 7.30654H0.500044V23.9999H5.83338V7.30654ZM14.26 7.30654H8.95338V23.9999H14.2067V15.2399C14.2067 10.3599 20.5667 9.90654 20.5667 15.2399V23.9999H25.8334V13.4265C25.8334 5.19987 16.42 5.50654 14.2067 9.54654L14.26 7.30654Z" fill="white"/>
</svg>
