<svg width="187" height="246" viewBox="0 0 187 246" fill="none" xmlns="http://www.w3.org/2000/svg">
<rect x="-0.000244141" y="0.795105" width="186.54" height="244.246" rx="22.8272" fill="white" fill-opacity="0.1"/>
<rect x="12.0778" y="212.833" width="162.383" height="19.7361" rx="9.86805" fill="white" fill-opacity="0.76"/>
<path d="M80.2323 220.321L81.5905 224.296H81.6453L83.0035 220.321H83.7994L82.0432 225.201H81.1925L79.4364 220.321H80.2323ZM84.4469 225.201V221.541H85.1594V225.201H84.4469ZM84.8067 220.977C84.6828 220.977 84.5764 220.935 84.4874 220.853C84.4 220.768 84.3563 220.668 84.3563 220.552C84.3563 220.435 84.4 220.335 84.4874 220.252C84.5764 220.168 84.6828 220.126 84.8067 220.126C84.9306 220.126 85.0363 220.168 85.1236 220.252C85.2126 220.335 85.2571 220.435 85.2571 220.552C85.2571 220.668 85.2126 220.768 85.1236 220.853C85.0363 220.935 84.9306 220.977 84.8067 220.977ZM87.6953 225.275C87.3347 225.275 87.0241 225.198 86.7636 225.044C86.5047 224.888 86.3045 224.67 86.1631 224.389C86.0233 224.106 85.9534 223.775 85.9534 223.395C85.9534 223.02 86.0233 222.69 86.1631 222.404C86.3045 222.118 86.5015 221.895 86.7541 221.734C87.0082 221.574 87.3053 221.494 87.6453 221.494C87.8518 221.494 88.0519 221.528 88.2457 221.596C88.4395 221.664 88.6135 221.772 88.7676 221.918C88.9217 222.064 89.0432 222.254 89.1321 222.487C89.2211 222.719 89.2656 223.001 89.2656 223.333V223.586H86.3561V223.052H88.5674C88.5674 222.865 88.5293 222.699 88.453 222.554C88.3768 222.408 88.2696 222.293 88.1314 222.209C87.9947 222.124 87.8343 222.082 87.65 222.082C87.4499 222.082 87.2751 222.131 87.1258 222.23C86.9781 222.327 86.8637 222.454 86.7827 222.611C86.7032 222.767 86.6635 222.936 86.6635 223.119V223.536C86.6635 223.78 86.7064 223.988 86.7922 224.16C86.8796 224.332 87.0011 224.463 87.1568 224.553C87.3125 224.642 87.4943 224.687 87.7024 224.687C87.8375 224.687 87.9606 224.668 88.0718 224.629C88.183 224.59 88.2791 224.531 88.3601 224.453C88.4411 224.375 88.5031 224.279 88.546 224.165L89.2203 224.286C89.1663 224.485 89.0694 224.659 88.9296 224.808C88.7914 224.956 88.6175 225.071 88.4078 225.154C88.1997 225.235 87.9622 225.275 87.6953 225.275ZM90.843 225.201L89.766 221.541H90.5023L91.2195 224.229H91.2552L91.9749 221.541H92.7112L93.426 224.217H93.4618L94.1742 221.541H94.9105L93.8359 225.201H93.1091L92.3657 222.559H92.3108L91.5674 225.201H90.843ZM97.4196 225.201V220.321H99.2068C99.5531 220.321 99.8398 220.378 100.067 220.493C100.294 220.606 100.464 220.759 100.577 220.953C100.69 221.145 100.746 221.362 100.746 221.603C100.746 221.807 100.709 221.978 100.634 222.118C100.559 222.256 100.459 222.367 100.334 222.452C100.21 222.534 100.073 222.595 99.924 222.633V222.68C100.086 222.688 100.244 222.741 100.398 222.838C100.554 222.933 100.683 223.069 100.784 223.245C100.886 223.421 100.937 223.636 100.937 223.888C100.937 224.138 100.878 224.362 100.76 224.56C100.644 224.757 100.465 224.914 100.222 225.03C99.9788 225.144 99.6682 225.201 99.2902 225.201H97.4196ZM98.1559 224.57H99.2187C99.5713 224.57 99.8239 224.502 99.9764 224.365C100.129 224.228 100.205 224.058 100.205 223.853C100.205 223.699 100.166 223.557 100.088 223.429C100.011 223.3 99.8994 223.197 99.7548 223.121C99.6118 223.045 99.4419 223.007 99.2449 223.007H98.1559V224.57ZM98.1559 222.433H99.1424C99.3076 222.433 99.4562 222.401 99.588 222.337C99.7215 222.274 99.8271 222.185 99.9049 222.07C99.9844 221.954 100.024 221.818 100.024 221.66C100.024 221.459 99.9534 221.29 99.812 221.153C99.6706 221.016 99.4538 220.948 99.1615 220.948H98.1559V222.433ZM101.753 225.201V221.541H102.465V225.201H101.753ZM102.113 220.977C101.989 220.977 101.882 220.935 101.793 220.853C101.706 220.768 101.662 220.668 101.662 220.552C101.662 220.435 101.706 220.335 101.793 220.252C101.882 220.168 101.989 220.126 102.113 220.126C102.237 220.126 102.342 220.168 102.43 220.252C102.519 220.335 102.563 220.435 102.563 220.552C102.563 220.668 102.519 220.768 102.43 220.853C102.342 220.935 102.237 220.977 102.113 220.977ZM104.794 225.273C104.498 225.273 104.235 225.197 104.003 225.046C103.772 224.894 103.591 224.677 103.46 224.396C103.329 224.113 103.264 223.774 103.264 223.378C103.264 222.983 103.33 222.645 103.462 222.363C103.595 222.082 103.778 221.867 104.01 221.718C104.242 221.568 104.505 221.494 104.799 221.494C105.026 221.494 105.209 221.532 105.347 221.608C105.487 221.683 105.595 221.77 105.671 221.87C105.749 221.97 105.809 222.058 105.852 222.135H105.895V220.321H106.607V225.201H105.911V224.632H105.852C105.809 224.71 105.747 224.799 105.666 224.899C105.587 224.999 105.477 225.086 105.337 225.161C105.197 225.236 105.016 225.273 104.794 225.273ZM104.951 224.665C105.156 224.665 105.329 224.611 105.471 224.503C105.614 224.394 105.722 224.242 105.795 224.048C105.869 223.854 105.907 223.629 105.907 223.371C105.907 223.117 105.87 222.895 105.797 222.704C105.724 222.514 105.617 222.365 105.475 222.259C105.334 222.152 105.159 222.099 104.951 222.099C104.737 222.099 104.558 222.155 104.415 222.266C104.272 222.377 104.164 222.529 104.091 222.721C104.019 222.913 103.984 223.13 103.984 223.371C103.984 223.616 104.02 223.836 104.093 224.031C104.166 224.227 104.274 224.382 104.417 224.496C104.562 224.609 104.74 224.665 104.951 224.665Z" fill="black"/>
<path d="M16.7748 88.3616C16.7748 85.9528 18.7276 84.0001 21.1364 84.0001H149.299C151.707 84.0001 153.66 85.9528 153.66 88.3616C153.66 90.7704 151.707 92.7231 149.299 92.7231H21.1364C18.7276 92.7231 16.7748 90.7704 16.7748 88.3616Z" fill="white"/>
<rect x="161.041" y="83.329" width="18.1172" height="9.39408" rx="0.671006" fill="white" fill-opacity="0.05"/>
<path opacity="0.44" d="M169.726 90.9391V84.8391H170.117V90.9391H169.726ZM170.949 86.731C170.923 86.5054 170.819 86.3307 170.634 86.2068C170.45 86.0813 170.218 86.0186 169.939 86.0186C169.738 86.0186 169.565 86.0503 169.419 86.1139C169.273 86.1758 169.159 86.2616 169.078 86.3712C168.999 86.4792 168.959 86.6023 168.959 86.7406C168.959 86.8565 168.986 86.9566 169.04 87.0408C169.096 87.125 169.168 87.1957 169.257 87.2529C169.348 87.3085 169.444 87.3553 169.548 87.3934C169.651 87.43 169.75 87.4602 169.846 87.484L170.322 87.6079C170.478 87.646 170.638 87.6977 170.801 87.7628C170.965 87.8279 171.116 87.9137 171.256 88.0201C171.396 88.1266 171.509 88.2584 171.595 88.4157C171.682 88.573 171.726 88.7612 171.726 88.9804C171.726 89.2568 171.654 89.5023 171.511 89.7167C171.37 89.9312 171.164 90.1003 170.894 90.2243C170.626 90.3482 170.301 90.4101 169.919 90.4101C169.554 90.4101 169.238 90.3521 168.971 90.2362C168.704 90.1202 168.495 89.9558 168.344 89.7429C168.194 89.5285 168.11 89.2743 168.094 88.9804H168.833C168.847 89.1567 168.904 89.3037 169.004 89.4212C169.106 89.5372 169.236 89.6238 169.393 89.681C169.552 89.7366 169.726 89.7644 169.915 89.7644C170.123 89.7644 170.308 89.7318 170.47 89.6667C170.634 89.6 170.762 89.5078 170.856 89.3903C170.95 89.2711 170.997 89.1321 170.997 88.9733C170.997 88.8287 170.955 88.7104 170.873 88.6182C170.792 88.5261 170.681 88.4498 170.541 88.3895C170.403 88.3291 170.247 88.2759 170.072 88.2298L169.495 88.0726C169.105 87.9661 168.795 87.8097 168.566 87.6031C168.339 87.3966 168.225 87.1234 168.225 86.7834C168.225 86.5023 168.302 86.2568 168.454 86.0471C168.607 85.8375 168.813 85.6746 169.074 85.5587C169.334 85.4411 169.628 85.3823 169.955 85.3823C170.286 85.3823 170.577 85.4403 170.83 85.5563C171.084 85.6722 171.284 85.8319 171.43 86.0352C171.576 86.237 171.653 86.4689 171.659 86.731H170.949Z" fill="white"/>
<path d="M16.7748 102.453C16.7748 100.044 18.7275 98.091 21.1363 98.091H149.298C151.707 98.091 153.66 100.044 153.66 102.453C153.66 104.861 151.707 106.814 149.298 106.814H21.1363C18.7275 106.814 16.7748 104.861 16.7748 102.453Z" fill="white"/>
<g clip-path="url(#clip0_1300_970)">
<rect x="161.041" y="97.42" width="18.1172" height="9.39408" rx="0.671006" fill="white" fill-opacity="0.05"/>
<path opacity="0.44" d="M169.726 105.03V98.9299H170.117V105.03H169.726ZM170.949 100.822C170.923 100.596 170.819 100.422 170.634 100.298C170.45 100.172 170.218 100.109 169.938 100.109C169.738 100.109 169.565 100.141 169.419 100.205C169.273 100.267 169.159 100.352 169.078 100.462C168.999 100.57 168.959 100.693 168.959 100.831C168.959 100.947 168.986 101.047 169.04 101.132C169.096 101.216 169.168 101.287 169.257 101.344C169.348 101.399 169.444 101.446 169.548 101.484C169.651 101.521 169.75 101.551 169.846 101.575L170.322 101.699C170.478 101.737 170.637 101.789 170.801 101.854C170.965 101.919 171.116 102.005 171.256 102.111C171.396 102.217 171.509 102.349 171.595 102.507C171.682 102.664 171.726 102.852 171.726 103.071C171.726 103.348 171.654 103.593 171.511 103.808C171.37 104.022 171.164 104.191 170.894 104.315C170.626 104.439 170.301 104.501 169.919 104.501C169.554 104.501 169.238 104.443 168.971 104.327C168.704 104.211 168.495 104.047 168.344 103.834C168.193 103.619 168.11 103.365 168.094 103.071H168.833C168.847 103.248 168.904 103.395 169.004 103.512C169.106 103.628 169.236 103.715 169.393 103.772C169.552 103.827 169.726 103.855 169.915 103.855C170.123 103.855 170.308 103.823 170.47 103.758C170.633 103.691 170.762 103.599 170.856 103.481C170.95 103.362 170.996 103.223 170.996 103.064C170.996 102.92 170.955 102.801 170.873 102.709C170.792 102.617 170.681 102.541 170.541 102.48C170.403 102.42 170.247 102.367 170.072 102.321L169.495 102.163C169.104 102.057 168.795 101.901 168.566 101.694C168.339 101.488 168.225 101.214 168.225 100.874C168.225 100.593 168.301 100.348 168.454 100.138C168.606 99.9283 168.813 99.7655 169.074 99.6495C169.334 99.532 169.628 99.4732 169.955 99.4732C170.286 99.4732 170.577 99.5312 170.83 99.6472C171.084 99.7631 171.284 99.9228 171.43 100.126C171.576 100.328 171.653 100.56 171.659 100.822H170.949Z" fill="white"/>
</g>
<path d="M16.7748 116.544C16.7748 114.135 18.7276 112.182 21.1364 112.182H149.299C151.707 112.182 153.66 114.135 153.66 116.544C153.66 118.953 151.707 120.905 149.299 120.905H21.1364C18.7276 120.905 16.7748 118.953 16.7748 116.544Z" fill="white"/>
<g clip-path="url(#clip1_1300_970)">
<rect x="161.041" y="111.511" width="18.1172" height="9.39408" rx="0.671006" fill="white" fill-opacity="0.05"/>
<path opacity="0.44" d="M169.726 119.121V113.021H170.117V119.121H169.726ZM170.949 114.913C170.923 114.688 170.819 114.513 170.634 114.389C170.45 114.264 170.218 114.201 169.939 114.201C169.738 114.201 169.565 114.233 169.419 114.296C169.273 114.358 169.159 114.444 169.078 114.553C168.999 114.661 168.959 114.785 168.959 114.923C168.959 115.039 168.986 115.139 169.04 115.223C169.096 115.307 169.168 115.378 169.257 115.435C169.348 115.491 169.444 115.538 169.548 115.576C169.651 115.612 169.75 115.642 169.846 115.666L170.322 115.79C170.478 115.828 170.638 115.88 170.801 115.945C170.965 116.01 171.116 116.096 171.256 116.202C171.396 116.309 171.509 116.441 171.595 116.598C171.682 116.755 171.726 116.943 171.726 117.163C171.726 117.439 171.654 117.685 171.511 117.899C171.37 118.113 171.164 118.283 170.894 118.407C170.626 118.53 170.301 118.592 169.919 118.592C169.554 118.592 169.238 118.534 168.971 118.418C168.704 118.302 168.495 118.138 168.344 117.925C168.194 117.711 168.11 117.457 168.094 117.163H168.833C168.847 117.339 168.904 117.486 169.004 117.603C169.106 117.719 169.236 117.806 169.393 117.863C169.552 117.919 169.726 117.947 169.915 117.947C170.123 117.947 170.308 117.914 170.47 117.849C170.634 117.782 170.762 117.69 170.856 117.573C170.95 117.453 170.997 117.314 170.997 117.156C170.997 117.011 170.955 116.893 170.873 116.8C170.792 116.708 170.681 116.632 170.541 116.572C170.403 116.511 170.247 116.458 170.072 116.412L169.495 116.255C169.105 116.148 168.795 115.992 168.566 115.785C168.339 115.579 168.225 115.306 168.225 114.966C168.225 114.685 168.302 114.439 168.454 114.229C168.607 114.02 168.813 113.857 169.074 113.741C169.334 113.623 169.628 113.565 169.955 113.565C170.286 113.565 170.577 113.623 170.83 113.739C171.084 113.854 171.284 114.014 171.43 114.217C171.576 114.419 171.653 114.651 171.659 114.913H170.949Z" fill="white"/>
</g>
<path d="M16.7748 130.635C16.7748 128.226 18.7275 126.273 21.1363 126.273H149.298C151.707 126.273 153.66 128.226 153.66 130.635C153.66 133.044 151.707 134.996 149.298 134.996H21.1363C18.7275 134.996 16.7748 133.044 16.7748 130.635Z" fill="white"/>
<rect x="161.041" y="125.602" width="18.1172" height="9.39408" rx="0.671006" fill="white" fill-opacity="0.05"/>
<path opacity="0.44" d="M169.726 133.212V127.112H170.117V133.212H169.726ZM170.949 129.004C170.923 128.779 170.819 128.604 170.634 128.48C170.45 128.354 170.218 128.292 169.938 128.292C169.738 128.292 169.565 128.324 169.419 128.387C169.273 128.449 169.159 128.535 169.078 128.644C168.999 128.752 168.959 128.876 168.959 129.014C168.959 129.13 168.986 129.23 169.04 129.314C169.096 129.398 169.168 129.469 169.257 129.526C169.348 129.582 169.444 129.629 169.548 129.667C169.651 129.703 169.75 129.733 169.846 129.757L170.322 129.881C170.478 129.919 170.637 129.971 170.801 130.036C170.965 130.101 171.116 130.187 171.256 130.293C171.396 130.4 171.509 130.532 171.595 130.689C171.682 130.846 171.726 131.034 171.726 131.254C171.726 131.53 171.654 131.775 171.511 131.99C171.37 132.204 171.164 132.374 170.894 132.497C170.626 132.621 170.301 132.683 169.919 132.683C169.554 132.683 169.238 132.625 168.971 132.509C168.704 132.393 168.495 132.229 168.344 132.016C168.193 131.802 168.11 131.547 168.094 131.254H168.833C168.847 131.43 168.904 131.577 169.004 131.694C169.106 131.81 169.236 131.897 169.393 131.954C169.552 132.01 169.726 132.038 169.915 132.038C170.123 132.038 170.308 132.005 170.47 131.94C170.633 131.873 170.762 131.781 170.856 131.663C170.95 131.544 170.996 131.405 170.996 131.246C170.996 131.102 170.955 130.984 170.873 130.891C170.792 130.799 170.681 130.723 170.541 130.663C170.403 130.602 170.247 130.549 170.072 130.503L169.495 130.346C169.104 130.239 168.795 130.083 168.566 129.876C168.339 129.67 168.225 129.397 168.225 129.057C168.225 128.775 168.301 128.53 168.454 128.32C168.606 128.111 168.813 127.948 169.074 127.832C169.334 127.714 169.628 127.656 169.955 127.656C170.286 127.656 170.577 127.714 170.83 127.829C171.084 127.945 171.284 128.105 171.43 128.308C171.576 128.51 171.653 128.742 171.659 129.004H170.949Z" fill="white"/>
<path d="M16.7748 144.726C16.7748 142.317 18.7275 140.364 21.1363 140.364H149.298C151.707 140.364 153.66 142.317 153.66 144.726C153.66 147.135 151.707 149.087 149.298 149.087H21.1363C18.7275 149.087 16.7748 147.135 16.7748 144.726Z" fill="white"/>
<rect x="161.041" y="139.693" width="18.1172" height="9.39408" rx="0.671006" fill="white" fill-opacity="0.05"/>
<path opacity="0.44" d="M169.726 147.303V141.203H170.117V147.303H169.726ZM170.949 143.095C170.923 142.87 170.819 142.695 170.634 142.571C170.45 142.446 170.218 142.383 169.938 142.383C169.738 142.383 169.565 142.415 169.419 142.478C169.273 142.54 169.159 142.626 169.078 142.736C168.999 142.844 168.959 142.967 168.959 143.105C168.959 143.221 168.986 143.321 169.04 143.405C169.096 143.489 169.168 143.56 169.257 143.617C169.348 143.673 169.444 143.72 169.548 143.758C169.651 143.794 169.75 143.825 169.846 143.848L170.322 143.972C170.478 144.01 170.637 144.062 170.801 144.127C170.965 144.192 171.116 144.278 171.256 144.385C171.396 144.491 171.509 144.623 171.595 144.78C171.682 144.937 171.726 145.126 171.726 145.345C171.726 145.621 171.654 145.867 171.511 146.081C171.37 146.296 171.164 146.465 170.894 146.589C170.626 146.713 170.301 146.774 169.919 146.774C169.554 146.774 169.238 146.717 168.971 146.601C168.704 146.485 168.495 146.32 168.344 146.107C168.193 145.893 168.11 145.639 168.094 145.345H168.833C168.847 145.521 168.904 145.668 169.004 145.786C169.106 145.902 169.236 145.988 169.393 146.045C169.552 146.101 169.726 146.129 169.915 146.129C170.123 146.129 170.308 146.096 170.47 146.031C170.633 145.964 170.762 145.872 170.856 145.755C170.95 145.636 170.996 145.497 170.996 145.338C170.996 145.193 170.955 145.075 170.873 144.983C170.792 144.89 170.681 144.814 170.541 144.754C170.403 144.693 170.247 144.64 170.072 144.594L169.495 144.437C169.104 144.331 168.795 144.174 168.566 143.968C168.339 143.761 168.225 143.488 168.225 143.148C168.225 142.867 168.301 142.621 168.454 142.412C168.606 142.202 168.813 142.039 169.074 141.923C169.334 141.805 169.628 141.747 169.955 141.747C170.286 141.747 170.577 141.805 170.83 141.921C171.084 142.037 171.284 142.196 171.43 142.4C171.576 142.601 171.653 142.833 171.659 143.095H170.949Z" fill="white"/>
<rect x="16.4889" y="18.3151" width="30.9172" height="30.9172" rx="15.4586" fill="#2896FF"/>
<path d="M22.8894 28.21L31.9792 24.6253L41.005 28.21V30.6425L31.9792 34.1632L22.8894 30.6425V28.21Z" fill="white"/>
<path d="M41.005 35.0594V32.6909L31.9792 36.1476L22.8894 32.6909V35.0594L31.9792 38.452L41.005 35.0594Z" fill="white"/>
<path d="M41.005 39.4122V37.1078L31.9792 40.5645L22.8894 37.1078V39.2202L31.9792 42.9329L41.005 39.4122Z" fill="white"/>
<path d="M58.2587 28.2163H60.3355V36.3426C60.3317 37.0875 60.1737 37.7289 59.8614 38.2669C59.5492 38.8012 59.1127 39.2131 58.5522 39.5028C57.9954 39.7887 57.3464 39.9317 56.6053 39.9317C55.9281 39.9317 55.3186 39.8113 54.7768 39.5705C54.2388 39.326 53.8118 38.9648 53.4958 38.487C53.1798 38.0092 53.0218 37.4148 53.0218 36.7037H55.1041C55.1079 37.016 55.1756 37.285 55.3073 37.5107C55.4427 37.7365 55.629 37.9095 55.866 38.0299C56.103 38.1503 56.3758 38.2105 56.6843 38.2105C57.0191 38.2105 57.3031 38.1409 57.5364 38.0017C57.7696 37.8587 57.9465 37.648 58.0669 37.3696C58.191 37.0912 58.255 36.7489 58.2587 36.3426V28.2163ZM66.2976 39.943C65.4511 39.943 64.7175 39.7568 64.0967 39.3843C63.4759 39.0118 62.9944 38.4908 62.652 37.8211C62.3134 37.1514 62.1441 36.3689 62.1441 35.4735C62.1441 34.5781 62.3134 33.7937 62.652 33.1203C62.9944 32.4468 63.4759 31.9239 64.0967 31.5514C64.7175 31.179 65.4511 30.9927 66.2976 30.9927C67.1441 30.9927 67.8777 31.179 68.4985 31.5514C69.1192 31.9239 69.5989 32.4468 69.9375 33.1203C70.2798 33.7937 70.451 34.5781 70.451 35.4735C70.451 36.3689 70.2798 37.1514 69.9375 37.8211C69.5989 38.4908 69.1192 39.0118 68.4985 39.3843C67.8777 39.7568 67.1441 39.943 66.2976 39.943ZM66.3089 38.3064C66.7678 38.3064 67.1516 38.1804 67.4601 37.9283C67.7686 37.6725 67.9981 37.3301 68.1486 36.9013C68.3028 36.4724 68.3799 35.9946 68.3799 35.4679C68.3799 34.9374 68.3028 34.4577 68.1486 34.0288C67.9981 33.5962 67.7686 33.2519 67.4601 32.9961C67.1516 32.7403 66.7678 32.6124 66.3089 32.6124C65.8386 32.6124 65.4473 32.7403 65.1351 32.9961C64.8266 33.2519 64.5952 33.5962 64.4409 34.0288C64.2905 34.4577 64.2152 34.9374 64.2152 35.4679C64.2152 35.9946 64.2905 36.4724 64.4409 36.9013C64.5952 37.3301 64.8266 37.6725 65.1351 37.9283C65.4473 38.1804 65.8386 38.3064 66.3089 38.3064ZM72.2752 39.7737V28.2163H74.3181V32.539H74.4027C74.5081 32.3283 74.6567 32.1045 74.8486 31.8675C75.0404 31.6267 75.3 31.4216 75.6273 31.2523C75.9546 31.0793 76.3722 30.9927 76.8801 30.9927C77.5498 30.9927 78.1536 31.1639 78.6916 31.5063C79.2334 31.8449 79.6623 32.3471 79.9783 33.013C80.2981 33.6752 80.458 34.4878 80.458 35.4509C80.458 36.4028 80.3018 37.2116 79.9896 37.8775C79.6773 38.5434 79.2522 39.0513 78.7142 39.4012C78.1762 39.7511 77.5667 39.9261 76.8858 39.9261C76.3892 39.9261 75.9772 39.8433 75.6499 39.6777C75.3226 39.5122 75.0592 39.3128 74.8598 39.0796C74.6642 38.8425 74.5118 38.6187 74.4027 38.408H74.2842V39.7737H72.2752ZM74.2786 35.4396C74.2786 36.0002 74.3576 36.4912 74.5156 36.9125C74.6774 37.3339 74.9087 37.6631 75.2097 37.9001C75.5145 38.1334 75.8832 38.25 76.3158 38.25C76.7673 38.25 77.1454 38.1296 77.4501 37.8888C77.7548 37.6443 77.9843 37.3113 78.1386 36.89C78.2966 36.4648 78.3756 35.9814 78.3756 35.4396C78.3756 34.9017 78.2985 34.4239 78.1442 34.0063C77.99 33.5887 77.7605 33.2613 77.4557 33.0243C77.151 32.7873 76.771 32.6688 76.3158 32.6688C75.8794 32.6688 75.5088 32.7835 75.2041 33.013C74.8993 33.2425 74.668 33.5642 74.51 33.978C74.3557 34.3919 74.2786 34.8791 74.2786 35.4396ZM89.0456 33.3968L87.1833 33.5999C87.1307 33.4118 87.0385 33.235 86.9068 33.0695C86.7789 32.9039 86.6058 32.7704 86.3876 32.6688C86.1694 32.5672 85.9023 32.5164 85.5863 32.5164C85.1612 32.5164 84.8038 32.6086 84.5141 32.7929C84.2281 32.9773 84.0871 33.2162 84.0908 33.5096C84.0871 33.7617 84.1792 33.9668 84.3673 34.1248C84.5592 34.2828 84.8752 34.4126 85.3154 34.5141L86.794 34.8302C87.6141 35.007 88.2236 35.2873 88.6224 35.671C89.0249 36.0548 89.2281 36.557 89.2319 37.1778C89.2281 37.7233 89.0682 38.2049 88.7522 38.6225C88.4399 39.0363 88.0054 39.3598 87.4486 39.5931C86.8918 39.8264 86.2522 39.943 85.5299 39.943C84.4689 39.943 83.6149 39.721 82.9678 39.2771C82.3207 38.8294 81.9351 38.2067 81.8109 37.4091L83.803 37.2173C83.8933 37.6085 84.0852 37.9039 84.3786 38.1033C84.6721 38.3027 85.0539 38.4024 85.5242 38.4024C86.0095 38.4024 86.3989 38.3027 86.6924 38.1033C86.9896 37.9039 87.1382 37.6575 87.1382 37.364C87.1382 37.1157 87.0423 36.9107 86.8504 36.7489C86.6623 36.5871 86.3688 36.463 85.97 36.3764L84.4915 36.066C83.6601 35.893 83.0449 35.6014 82.6462 35.1913C82.2474 34.7775 82.0498 34.2546 82.0536 33.6225C82.0498 33.0883 82.1947 32.6255 82.4881 32.2343C82.7854 31.8392 83.1973 31.5345 83.724 31.3201C84.2545 31.1018 84.8658 30.9927 85.5581 30.9927C86.5739 30.9927 87.3733 31.2091 87.9565 31.6417C88.5434 32.0744 88.9064 32.6594 89.0456 33.3968ZM92.1861 43.0242C91.9077 43.0242 91.65 43.0016 91.413 42.9565C91.1797 42.9151 90.9935 42.8662 90.8543 42.8098L91.3283 41.2184C91.6255 41.3049 91.8908 41.3463 92.124 41.3425C92.3573 41.3388 92.5623 41.2654 92.7391 41.1224C92.9197 40.9832 93.0721 40.75 93.1963 40.4227L93.3712 39.9543L90.2279 31.1056H92.3949L94.3926 37.6518H94.4829L96.4863 31.1056H98.6589L95.1883 40.8233C95.0266 41.2823 94.8121 41.6755 94.545 42.0028C94.2779 42.3338 93.9506 42.5859 93.5631 42.759C93.1793 42.9358 92.7203 43.0242 92.1861 43.0242ZM102.115 34.6947V39.7737H100.073V31.1056H102.025V32.5785H102.127C102.326 32.0932 102.644 31.7076 103.08 31.4216C103.521 31.1357 104.064 30.9927 104.711 30.9927C105.31 30.9927 105.831 31.1207 106.275 31.3765C106.722 31.6323 107.068 32.0029 107.313 32.4882C107.561 32.9735 107.683 33.5623 107.68 34.2546V39.7737H105.637V34.5706C105.637 33.9912 105.486 33.5379 105.185 33.2106C104.888 32.8832 104.476 32.7196 103.95 32.7196C103.592 32.7196 103.274 32.7986 102.996 32.9566C102.721 33.1109 102.505 33.3347 102.347 33.6282C102.193 33.9216 102.115 34.2771 102.115 34.6947ZM113.537 39.943C112.672 39.943 111.929 39.753 111.308 39.373C110.691 38.993 110.215 38.4682 109.881 37.7985C109.55 37.1251 109.384 36.3501 109.384 35.4735C109.384 34.5932 109.553 33.8163 109.892 33.1428C110.23 32.4656 110.708 31.9389 111.325 31.5627C111.946 31.1827 112.68 30.9927 113.526 30.9927C114.23 30.9927 114.852 31.1225 115.394 31.3821C115.94 31.638 116.374 32.001 116.698 32.4713C117.021 32.9378 117.206 33.4833 117.251 34.1078H115.298C115.219 33.6902 115.031 33.3422 114.734 33.0638C114.44 32.7817 114.047 32.6406 113.554 32.6406C113.137 32.6406 112.77 32.7534 112.454 32.9792C112.138 33.2011 111.891 33.5209 111.715 33.9385C111.542 34.3561 111.455 34.8565 111.455 35.4396C111.455 36.0303 111.542 36.5382 111.715 36.9633C111.888 37.3847 112.13 37.7101 112.443 37.9396C112.759 38.1653 113.129 38.2782 113.554 38.2782C113.855 38.2782 114.124 38.2218 114.361 38.1089C114.602 37.9923 114.803 37.8249 114.965 37.6067C115.127 37.3885 115.238 37.1232 115.298 36.811H117.251C117.202 37.4242 117.021 37.9678 116.709 38.4419C116.397 38.9121 115.972 39.2808 115.434 39.548C114.896 39.8113 114.264 39.943 113.537 39.943Z" fill="white"/>
<defs>
<clipPath id="clip0_1300_970">
<rect x="161.041" y="97.42" width="18.1172" height="9.39408" rx="0.671006" fill="white"/>
</clipPath>
<clipPath id="clip1_1300_970">
<rect x="161.041" y="111.511" width="18.1172" height="9.39408" rx="0.671006" fill="white"/>
</clipPath>
</defs>
</svg>
