<svg width="187" height="246" viewBox="0 0 187 246" fill="none" xmlns="http://www.w3.org/2000/svg">
<rect x="0.460083" y="0.886902" width="186.54" height="244.246" rx="22.8272" fill="white" fill-opacity="0.1"/>
<rect x="12.5385" y="212.925" width="162.383" height="19.7361" rx="9.86805" fill="white" fill-opacity="0.76"/>
<path d="M80.6929 220.413L82.0511 224.387H82.1059L83.4641 220.413H84.26L82.5038 225.293H81.6532L79.897 220.413H80.6929ZM84.9075 225.293V221.633H85.62V225.293H84.9075ZM85.2673 221.068C85.1434 221.068 85.037 221.027 84.948 220.944C84.8607 220.86 84.817 220.76 84.817 220.644C84.817 220.527 84.8607 220.426 84.948 220.344C85.037 220.26 85.1434 220.218 85.2673 220.218C85.3912 220.218 85.4969 220.26 85.5843 220.344C85.6732 220.426 85.7177 220.527 85.7177 220.644C85.7177 220.76 85.6732 220.86 85.5843 220.944C85.4969 221.027 85.3912 221.068 85.2673 221.068ZM88.1559 225.367C87.7953 225.367 87.4848 225.29 87.2242 225.136C86.9653 224.98 86.7651 224.762 86.6238 224.48C86.484 224.198 86.4141 223.866 86.4141 223.487C86.4141 223.112 86.484 222.781 86.6238 222.496C86.7651 222.21 86.9621 221.986 87.2147 221.826C87.4689 221.666 87.7659 221.585 88.1059 221.585C88.3124 221.585 88.5126 221.619 88.7064 221.688C88.9002 221.756 89.0741 221.863 89.2282 222.009C89.3823 222.156 89.5038 222.345 89.5928 222.579C89.6817 222.811 89.7262 223.093 89.7262 223.425V223.677H86.8168V223.144H89.028C89.028 222.956 88.9899 222.79 88.9137 222.646C88.8374 222.499 88.7302 222.384 88.592 222.3C88.4554 222.216 88.2949 222.174 88.1107 222.174C87.9105 222.174 87.7358 222.223 87.5864 222.322C87.4387 222.418 87.3243 222.546 87.2433 222.703C87.1639 222.859 87.1242 223.028 87.1242 223.21V223.627C87.1242 223.872 87.1671 224.08 87.2528 224.252C87.3402 224.423 87.4617 224.554 87.6174 224.645C87.7731 224.734 87.955 224.778 88.1631 224.778C88.2981 224.778 88.4212 224.759 88.5324 224.721C88.6436 224.681 88.7397 224.623 88.8207 224.545C88.9018 224.467 88.9637 224.371 89.0066 224.256L89.6809 224.378C89.6269 224.577 89.53 224.75 89.3902 224.9C89.252 225.048 89.0781 225.163 88.8684 225.245C88.6603 225.326 88.4228 225.367 88.1559 225.367ZM91.3037 225.293L90.2266 221.633H90.9629L91.6801 224.321H91.7159L92.4355 221.633H93.1718L93.8866 224.309H93.9224L94.6349 221.633H95.3711L94.2965 225.293H93.5697L92.8263 222.65H92.7715L92.028 225.293H91.3037ZM97.8803 225.293V220.413H99.6674C100.014 220.413 100.3 220.47 100.528 220.584C100.755 220.697 100.925 220.851 101.038 221.044C101.15 221.237 101.207 221.453 101.207 221.695C101.207 221.898 101.169 222.07 101.095 222.21C101.02 222.348 100.92 222.459 100.794 222.543C100.671 222.626 100.534 222.686 100.385 222.724V222.772C100.547 222.78 100.705 222.832 100.859 222.929C101.014 223.025 101.143 223.16 101.245 223.337C101.347 223.513 101.397 223.727 101.397 223.98C101.397 224.229 101.339 224.453 101.221 224.652C101.105 224.849 100.926 225.005 100.682 225.121C100.439 225.236 100.129 225.293 99.7508 225.293H97.8803ZM98.6166 224.662H99.6793C100.032 224.662 100.285 224.593 100.437 224.457C100.59 224.32 100.666 224.149 100.666 223.944C100.666 223.79 100.627 223.649 100.549 223.52C100.471 223.391 100.36 223.289 100.215 223.213C100.072 223.137 99.9025 223.098 99.7055 223.098H98.6166V224.662ZM98.6166 222.524H99.6031C99.7683 222.524 99.9168 222.492 100.049 222.429C100.182 222.365 100.288 222.276 100.366 222.162C100.445 222.046 100.485 221.909 100.485 221.752C100.485 221.55 100.414 221.381 100.273 221.245C100.131 221.108 99.9144 221.04 99.6221 221.04H98.6166V222.524ZM102.213 225.293V221.633H102.926V225.293H102.213ZM102.573 221.068C102.449 221.068 102.343 221.027 102.254 220.944C102.167 220.86 102.123 220.76 102.123 220.644C102.123 220.527 102.167 220.426 102.254 220.344C102.343 220.26 102.449 220.218 102.573 220.218C102.697 220.218 102.803 220.26 102.89 220.344C102.979 220.426 103.024 220.527 103.024 220.644C103.024 220.76 102.979 220.86 102.89 220.944C102.803 221.027 102.697 221.068 102.573 221.068ZM105.255 225.364C104.959 225.364 104.695 225.289 104.463 225.138C104.233 224.986 104.052 224.769 103.92 224.488C103.79 224.205 103.725 223.866 103.725 223.47C103.725 223.075 103.791 222.736 103.923 222.455C104.056 222.174 104.239 221.959 104.471 221.809C104.703 221.66 104.965 221.585 105.259 221.585C105.486 221.585 105.669 221.623 105.807 221.7C105.947 221.774 106.055 221.862 106.131 221.962C106.209 222.062 106.27 222.15 106.313 222.226H106.355V220.413H107.068V225.293H106.372V224.723H106.313C106.27 224.801 106.208 224.89 106.127 224.99C106.047 225.09 105.938 225.178 105.798 225.252C105.658 225.327 105.477 225.364 105.255 225.364ZM105.412 224.757C105.617 224.757 105.79 224.703 105.931 224.595C106.074 224.485 106.182 224.333 106.255 224.14C106.33 223.946 106.367 223.72 106.367 223.463C106.367 223.209 106.331 222.986 106.258 222.796C106.185 222.605 106.077 222.457 105.936 222.35C105.795 222.244 105.62 222.191 105.412 222.191C105.197 222.191 105.019 222.246 104.876 222.357C104.733 222.469 104.625 222.62 104.552 222.812C104.48 223.005 104.444 223.221 104.444 223.463C104.444 223.708 104.481 223.928 104.554 224.123C104.627 224.318 104.735 224.473 104.878 224.588C105.023 224.7 105.201 224.757 105.412 224.757Z" fill="black"/>
<path d="M17.2353 88.4532C17.2353 86.0444 19.188 84.0917 21.5968 84.0917H149.759C152.168 84.0917 154.121 86.0444 154.121 88.4532C154.121 90.862 152.168 92.8148 149.759 92.8148H21.5968C19.188 92.8148 17.2353 90.862 17.2353 88.4532Z" fill="white"/>
<g clip-path="url(#clip0_1300_998)">
<rect x="161.502" y="83.4208" width="18.1172" height="9.39408" rx="0.671006" fill="white"/>
<path opacity="0.44" d="M170.187 91.0308V84.9307H170.578V91.0308H170.187ZM171.409 86.8227C171.384 86.5971 171.279 86.4224 171.095 86.2985C170.911 86.173 170.679 86.1102 170.399 86.1102C170.199 86.1102 170.026 86.142 169.88 86.2055C169.733 86.2675 169.62 86.3533 169.539 86.4629C169.459 86.5709 169.42 86.694 169.42 86.8322C169.42 86.9482 169.447 87.0483 169.501 87.1325C169.556 87.2167 169.629 87.2873 169.717 87.3445C169.808 87.4001 169.905 87.447 170.008 87.4851C170.111 87.5217 170.211 87.5518 170.306 87.5757L170.783 87.6996C170.938 87.7377 171.098 87.7893 171.262 87.8545C171.425 87.9196 171.577 88.0054 171.717 88.1118C171.856 88.2182 171.969 88.3501 172.055 88.5074C172.142 88.6646 172.186 88.8529 172.186 89.0721C172.186 89.3485 172.115 89.5939 171.972 89.8084C171.83 90.0228 171.625 90.192 171.355 90.3159C171.086 90.4398 170.761 90.5018 170.38 90.5018C170.015 90.5018 169.698 90.4438 169.432 90.3278C169.165 90.2119 168.956 90.0475 168.805 89.8346C168.654 89.6201 168.571 89.366 168.555 89.0721H169.293C169.308 89.2484 169.365 89.3954 169.465 89.5129C169.567 89.6289 169.696 89.7155 169.853 89.7726C170.012 89.8282 170.186 89.856 170.375 89.856C170.583 89.856 170.768 89.8235 170.93 89.7583C171.094 89.6916 171.223 89.5995 171.316 89.4819C171.41 89.3628 171.457 89.2238 171.457 89.0649C171.457 88.9204 171.416 88.802 171.333 88.7099C171.252 88.6178 171.142 88.5415 171.002 88.4811C170.864 88.4208 170.707 88.3676 170.532 88.3215L169.956 88.1642C169.565 88.0578 169.255 87.9013 169.026 87.6948C168.799 87.4883 168.686 87.2151 168.686 86.8751C168.686 86.5939 168.762 86.3485 168.914 86.1388C169.067 85.9291 169.273 85.7663 169.534 85.6503C169.795 85.5328 170.088 85.474 170.416 85.474C170.746 85.474 171.038 85.532 171.29 85.648C171.544 85.7639 171.744 85.9236 171.891 86.1269C172.037 86.3287 172.113 86.5606 172.119 86.8227H171.409Z" fill="#3A3B3D"/>
</g>
<path d="M17.2353 102.544C17.2353 100.135 19.188 98.1826 21.5968 98.1826H149.759C152.168 98.1826 154.121 100.135 154.121 102.544C154.121 104.953 152.168 106.906 149.759 106.906H21.5968C19.188 106.906 17.2353 104.953 17.2353 102.544Z" fill="white"/>
<g clip-path="url(#clip1_1300_998)">
<rect x="161.502" y="97.5118" width="18.1172" height="9.39408" rx="0.671006" fill="white"/>
<path opacity="0.44" d="M170.187 105.122V99.0218H170.578V105.122H170.187ZM171.409 100.914C171.384 100.688 171.279 100.513 171.095 100.39C170.911 100.264 170.679 100.201 170.399 100.201C170.199 100.201 170.026 100.233 169.88 100.297C169.733 100.359 169.62 100.444 169.539 100.554C169.459 100.662 169.42 100.785 169.42 100.923C169.42 101.039 169.447 101.139 169.501 101.224C169.556 101.308 169.629 101.378 169.717 101.436C169.808 101.491 169.905 101.538 170.008 101.576C170.111 101.613 170.211 101.643 170.306 101.667L170.783 101.791C170.938 101.829 171.098 101.88 171.262 101.946C171.425 102.011 171.577 102.096 171.717 102.203C171.856 102.309 171.969 102.441 172.055 102.598C172.142 102.756 172.186 102.944 172.186 103.163C172.186 103.44 172.115 103.685 171.972 103.899C171.83 104.114 171.625 104.283 171.355 104.407C171.086 104.531 170.761 104.593 170.38 104.593C170.015 104.593 169.698 104.535 169.432 104.419C169.165 104.303 168.956 104.139 168.805 103.926C168.654 103.711 168.571 103.457 168.555 103.163H169.293C169.308 103.339 169.365 103.486 169.465 103.604C169.567 103.72 169.696 103.807 169.853 103.864C170.012 103.919 170.186 103.947 170.375 103.947C170.583 103.947 170.768 103.915 170.93 103.849C171.094 103.783 171.223 103.691 171.316 103.573C171.41 103.454 171.457 103.315 171.457 103.156C171.457 103.011 171.416 102.893 171.333 102.801C171.252 102.709 171.142 102.633 171.002 102.572C170.864 102.512 170.707 102.459 170.532 102.413L169.956 102.255C169.565 102.149 169.255 101.992 169.026 101.786C168.799 101.579 168.686 101.306 168.686 100.966C168.686 100.685 168.762 100.44 168.914 100.23C169.067 100.02 169.273 99.8574 169.534 99.7414C169.795 99.6239 170.088 99.5651 170.416 99.5651C170.746 99.5651 171.038 99.6231 171.29 99.739C171.544 99.855 171.744 100.015 171.891 100.218C172.037 100.42 172.113 100.652 172.119 100.914H171.409Z" fill="#3A3B3D"/>
</g>
<path d="M17.2353 116.636C17.2353 114.227 19.188 112.274 21.5968 112.274H149.759C152.168 112.274 154.121 114.227 154.121 116.636C154.121 119.044 152.168 120.997 149.759 120.997H21.5968C19.188 120.997 17.2353 119.044 17.2353 116.636Z" fill="white"/>
<rect x="161.502" y="111.603" width="18.1172" height="9.39408" rx="0.671006" fill="white"/>
<path opacity="0.44" d="M170.187 119.213V113.113H170.578V119.213H170.187ZM171.409 115.005C171.384 114.779 171.279 114.605 171.095 114.481C170.911 114.355 170.679 114.292 170.399 114.292C170.199 114.292 170.026 114.324 169.88 114.388C169.733 114.45 169.62 114.535 169.539 114.645C169.459 114.753 169.42 114.876 169.42 115.014C169.42 115.13 169.447 115.23 169.501 115.315C169.556 115.399 169.629 115.469 169.717 115.527C169.808 115.582 169.905 115.629 170.008 115.667C170.111 115.704 170.211 115.734 170.306 115.758L170.783 115.882C170.938 115.92 171.098 115.971 171.262 116.037C171.425 116.102 171.577 116.188 171.717 116.294C171.856 116.4 171.969 116.532 172.055 116.689C172.142 116.847 172.186 117.035 172.186 117.254C172.186 117.531 172.115 117.776 171.972 117.991C171.83 118.205 171.625 118.374 171.355 118.498C171.086 118.622 170.761 118.684 170.38 118.684C170.015 118.684 169.698 118.626 169.432 118.51C169.165 118.394 168.956 118.23 168.805 118.017C168.654 117.802 168.571 117.548 168.555 117.254H169.293C169.308 117.431 169.365 117.577 169.465 117.695C169.567 117.811 169.696 117.898 169.853 117.955C170.012 118.01 170.186 118.038 170.375 118.038C170.583 118.038 170.768 118.006 170.93 117.94C171.094 117.874 171.223 117.782 171.316 117.664C171.41 117.545 171.457 117.406 171.457 117.247C171.457 117.103 171.416 116.984 171.333 116.892C171.252 116.8 171.142 116.724 171.002 116.663C170.864 116.603 170.707 116.55 170.532 116.504L169.956 116.346C169.565 116.24 169.255 116.083 169.026 115.877C168.799 115.67 168.686 115.397 168.686 115.057C168.686 114.776 168.762 114.531 168.914 114.321C169.067 114.111 169.273 113.948 169.534 113.832C169.795 113.715 170.088 113.656 170.416 113.656C170.746 113.656 171.038 113.714 171.29 113.83C171.544 113.946 171.744 114.106 171.891 114.309C172.037 114.511 172.113 114.743 172.119 115.005H171.409Z" fill="#3A3B3D"/>
<path d="M17.2353 130.727C17.2353 128.318 19.188 126.365 21.5968 126.365H149.759C152.168 126.365 154.121 128.318 154.121 130.727C154.121 133.135 152.168 135.088 149.759 135.088H21.5968C19.188 135.088 17.2353 133.135 17.2353 130.727Z" fill="white"/>
<rect x="161.502" y="125.694" width="18.1172" height="9.39408" rx="0.671006" fill="white"/>
<path opacity="0.44" d="M170.187 133.304V127.204H170.578V133.304H170.187ZM171.409 129.096C171.384 128.87 171.279 128.696 171.095 128.572C170.911 128.446 170.679 128.384 170.399 128.384C170.199 128.384 170.026 128.415 169.88 128.479C169.733 128.541 169.62 128.627 169.539 128.736C169.459 128.844 169.42 128.967 169.42 129.106C169.42 129.222 169.447 129.322 169.501 129.406C169.556 129.49 169.629 129.561 169.717 129.618C169.808 129.674 169.905 129.72 170.008 129.759C170.111 129.795 170.211 129.825 170.306 129.849L170.783 129.973C170.938 130.011 171.098 130.063 171.262 130.128C171.425 130.193 171.577 130.279 171.717 130.385C171.856 130.492 171.969 130.623 172.055 130.781C172.142 130.938 172.186 131.126 172.186 131.345C172.186 131.622 172.115 131.867 171.972 132.082C171.83 132.296 171.625 132.465 171.355 132.589C171.086 132.713 170.761 132.775 170.38 132.775C170.015 132.775 169.698 132.717 169.432 132.601C169.165 132.485 168.956 132.321 168.805 132.108C168.654 131.894 168.571 131.639 168.555 131.345H169.293C169.308 131.522 169.365 131.669 169.465 131.786C169.567 131.902 169.696 131.989 169.853 132.046C170.012 132.102 170.186 132.129 170.375 132.129C170.583 132.129 170.768 132.097 170.93 132.032C171.094 131.965 171.223 131.873 171.316 131.755C171.41 131.636 171.457 131.497 171.457 131.338C171.457 131.194 171.416 131.075 171.333 130.983C171.252 130.891 171.142 130.815 171.002 130.755C170.864 130.694 170.707 130.641 170.532 130.595L169.956 130.438C169.565 130.331 169.255 130.175 169.026 129.968C168.799 129.762 168.686 129.488 168.686 129.148C168.686 128.867 168.762 128.622 168.914 128.412C169.067 128.203 169.273 128.04 169.534 127.924C169.795 127.806 170.088 127.747 170.416 127.747C170.746 127.747 171.038 127.805 171.29 127.921C171.544 128.037 171.744 128.197 171.891 128.4C172.037 128.602 172.113 128.834 172.119 129.096H171.409Z" fill="#3A3B3D"/>
<path d="M17.2353 144.818C17.2353 142.409 19.188 140.456 21.5968 140.456H149.759C152.168 140.456 154.121 142.409 154.121 144.818C154.121 147.226 152.168 149.179 149.759 149.179H21.5968C19.188 149.179 17.2353 147.226 17.2353 144.818Z" fill="white"/>
<g clip-path="url(#clip2_1300_998)">
<rect x="161.502" y="139.785" width="18.1172" height="9.39408" rx="0.671006" fill="white"/>
<path opacity="0.44" d="M170.187 147.395V141.295H170.578V147.395H170.187ZM171.409 143.187C171.384 142.961 171.279 142.787 171.095 142.663C170.911 142.537 170.679 142.474 170.399 142.474C170.199 142.474 170.026 142.506 169.88 142.57C169.733 142.632 169.62 142.717 169.539 142.827C169.459 142.935 169.42 143.058 169.42 143.196C169.42 143.312 169.447 143.412 169.501 143.497C169.556 143.581 169.629 143.652 169.717 143.709C169.808 143.764 169.905 143.811 170.008 143.849C170.111 143.886 170.211 143.916 170.306 143.94L170.783 144.064C170.938 144.102 171.098 144.154 171.262 144.219C171.425 144.284 171.577 144.37 171.717 144.476C171.856 144.582 171.969 144.714 172.055 144.872C172.142 145.029 172.186 145.217 172.186 145.436C172.186 145.713 172.115 145.958 171.972 146.173C171.83 146.387 171.625 146.556 171.355 146.68C171.086 146.804 170.761 146.866 170.38 146.866C170.015 146.866 169.698 146.808 169.432 146.692C169.165 146.576 168.956 146.412 168.805 146.199C168.654 145.984 168.571 145.73 168.555 145.436H169.293C169.308 145.613 169.365 145.76 169.465 145.877C169.567 145.993 169.696 146.08 169.853 146.137C170.012 146.192 170.186 146.22 170.375 146.22C170.583 146.22 170.768 146.188 170.93 146.123C171.094 146.056 171.223 145.964 171.316 145.846C171.41 145.727 171.457 145.588 171.457 145.429C171.457 145.285 171.416 145.166 171.333 145.074C171.252 144.982 171.142 144.906 171.002 144.845C170.864 144.785 170.707 144.732 170.532 144.686L169.956 144.528C169.565 144.422 169.255 144.266 169.026 144.059C168.799 143.852 168.686 143.579 168.686 143.239C168.686 142.958 168.762 142.713 168.914 142.503C169.067 142.293 169.273 142.131 169.534 142.015C169.795 141.897 170.088 141.838 170.416 141.838C170.746 141.838 171.038 141.896 171.29 142.012C171.544 142.128 171.744 142.288 171.891 142.491C172.037 142.693 172.113 142.925 172.119 143.187H171.409Z" fill="#3A3B3D"/>
</g>
<rect x="16.9493" y="18.4069" width="30.9172" height="30.9172" rx="15.4586" fill="#2896FF"/>
<path d="M23.3501 28.3018L32.4399 24.7171L41.4657 28.3018V30.7343L32.4399 34.255L23.3501 30.7343V28.3018Z" fill="white"/>
<path d="M41.4657 35.1512V32.7827L32.4399 36.2394L23.3501 32.7827V35.1512L32.4399 38.5438L41.4657 35.1512Z" fill="white"/>
<path d="M41.4657 39.504V37.1996L32.4399 40.6563L23.3501 37.1996V39.312L32.4399 43.0247L41.4657 39.504Z" fill="white"/>
<path d="M64.0521 32.2076H61.9415C61.8813 31.8615 61.7703 31.5549 61.6085 31.2878C61.4468 31.0169 61.2455 30.7874 61.0047 30.5993C60.7639 30.4112 60.4893 30.2701 60.1808 30.176C59.8761 30.0782 59.5469 30.0293 59.1932 30.0293C58.5649 30.0293 58.0081 30.1873 57.5228 30.5033C57.0375 30.8156 56.6575 31.2746 56.3829 31.8803C56.1082 32.4823 55.9709 33.2178 55.9709 34.0868C55.9709 34.9709 56.1082 35.7159 56.3829 36.3216C56.6613 36.9235 57.0412 37.3787 57.5228 37.6872C58.0081 37.992 58.563 38.1443 59.1876 38.1443C59.5337 38.1443 59.8572 38.0992 60.1582 38.0089C60.463 37.9148 60.7357 37.7775 60.9765 37.5969C61.221 37.4164 61.4261 37.1944 61.5916 36.931C61.7609 36.6677 61.8775 36.3667 61.9415 36.0281L64.0521 36.0394C63.9731 36.5887 63.8019 37.1041 63.5385 37.5857C63.2789 38.0672 62.9385 38.4923 62.5171 38.861C62.0957 39.226 61.6029 39.5119 61.0386 39.7188C60.4742 39.922 59.8478 40.0236 59.1594 40.0236C58.1436 40.0236 57.2369 39.7884 56.4393 39.3181C55.6417 38.8479 55.0134 38.1688 54.5544 37.2809C54.0955 36.393 53.866 35.3283 53.866 34.0868C53.866 32.8415 54.0973 31.7768 54.5601 30.8927C55.0228 30.0049 55.653 29.3258 56.4506 28.8555C57.2482 28.3852 58.1511 28.1501 59.1594 28.1501C59.8027 28.1501 60.4009 28.2404 60.9539 28.421C61.507 28.6016 61.9998 28.8668 62.4325 29.2167C62.8651 29.5628 63.2206 29.9879 63.499 30.4921C63.7812 30.9924 63.9655 31.5643 64.0521 32.2076ZM69.6601 40.0348C68.8136 40.0348 68.08 39.8486 67.4592 39.4762C66.8384 39.1037 66.3569 38.5826 66.0145 37.913C65.6759 37.2433 65.5066 36.4608 65.5066 35.5654C65.5066 34.67 65.6759 33.8855 66.0145 33.2121C66.3569 32.5387 66.8384 32.0157 67.4592 31.6433C68.08 31.2708 68.8136 31.0846 69.6601 31.0846C70.5066 31.0846 71.2402 31.2708 71.861 31.6433C72.4817 32.0157 72.9614 32.5387 73.3 33.2121C73.6424 33.8855 73.8135 34.67 73.8135 35.5654C73.8135 36.4608 73.6424 37.2433 73.3 37.913C72.9614 38.5826 72.4817 39.1037 71.861 39.4762C71.2402 39.8486 70.5066 40.0348 69.6601 40.0348ZM69.6714 38.3983C70.1304 38.3983 70.5141 38.2723 70.8226 38.0202C71.1311 37.7644 71.3606 37.422 71.5111 36.9931C71.6653 36.5642 71.7425 36.0864 71.7425 35.5597C71.7425 35.0293 71.6653 34.5496 71.5111 34.1207C71.3606 33.688 71.1311 33.3438 70.8226 33.088C70.5141 32.8321 70.1304 32.7042 69.6714 32.7042C69.2011 32.7042 68.8098 32.8321 68.4976 33.088C68.1891 33.3438 67.9577 33.688 67.8034 34.1207C67.653 34.5496 67.5777 35.0293 67.5777 35.5597C67.5777 36.0864 67.653 36.5642 67.8034 36.9931C67.9577 37.422 68.1891 37.7644 68.4976 38.0202C68.8098 38.2723 69.2011 38.3983 69.6714 38.3983ZM77.5903 34.7866V39.8655H75.5474V31.1975H77.5V32.6704H77.6016C77.801 32.185 78.1189 31.7994 78.5553 31.5135C78.9955 31.2276 79.5391 31.0846 80.1862 31.0846C80.7844 31.0846 81.3055 31.2125 81.7494 31.4683C82.1971 31.7242 82.5432 32.0947 82.7878 32.5801C83.0361 33.0654 83.1583 33.6542 83.1546 34.3464V39.8655H81.1117V34.6624C81.1117 34.0831 80.9612 33.6297 80.6602 33.3024C80.363 32.9751 79.9511 32.8114 79.4244 32.8114C79.067 32.8114 78.749 32.8904 78.4706 33.0485C78.196 33.2027 77.9797 33.4266 77.8217 33.72C77.6674 34.0135 77.5903 34.369 77.5903 34.7866ZM89.5597 31.1975V32.7776H84.5767V31.1975H89.5597ZM85.8069 29.1207H87.8498V37.2583C87.8498 37.533 87.8912 37.7437 87.9739 37.8904C88.0605 38.0334 88.1733 38.1312 88.3125 38.1838C88.4517 38.2365 88.606 38.2628 88.7753 38.2628C88.9032 38.2628 89.0198 38.2534 89.1252 38.2346C89.2343 38.2158 89.317 38.1989 89.3735 38.1838L89.7177 39.7809C89.6086 39.8185 89.4525 39.8599 89.2493 39.905C89.0499 39.9502 88.8054 39.9765 88.5157 39.984C88.004 39.9991 87.5432 39.922 87.1331 39.7527C86.723 39.5796 86.3976 39.3125 86.1568 38.9513C85.9198 38.5902 85.8031 38.1387 85.8069 37.5969V29.1207ZM91.2682 39.8655V31.1975H93.249V32.6421H93.3393C93.4973 32.1418 93.7682 31.7562 94.1519 31.4853C94.5394 31.2106 94.9815 31.0733 95.4781 31.0733C95.5909 31.0733 95.717 31.079 95.8562 31.0902C95.9991 31.0978 96.1176 31.1109 96.2117 31.1297V33.009C96.1252 32.9789 95.9878 32.9525 95.7997 32.93C95.6154 32.9036 95.4367 32.8904 95.2636 32.8904C94.8912 32.8904 94.5563 32.9713 94.2591 33.1331C93.9657 33.2911 93.7343 33.5112 93.565 33.7934C93.3957 34.0755 93.3111 34.401 93.3111 34.7697V39.8655H91.2682ZM99.908 40.0405C99.3588 40.0405 98.864 39.9427 98.4239 39.747C97.9874 39.5476 97.6413 39.2542 97.3855 38.8667C97.1334 38.4792 97.0074 38.0014 97.0074 37.4333C97.0074 36.9442 97.0977 36.5398 97.2783 36.22C97.4589 35.9002 97.7053 35.6444 98.0175 35.4525C98.3298 35.2606 98.6816 35.1158 99.0728 35.018C99.4679 34.9164 99.8761 34.843 100.297 34.7979C100.805 34.7452 101.217 34.6982 101.533 34.6568C101.849 34.6116 102.079 34.5439 102.222 34.4536C102.369 34.3596 102.442 34.2147 102.442 34.0191V33.9852C102.442 33.5601 102.316 33.2309 102.064 32.9977C101.812 32.7644 101.449 32.6478 100.975 32.6478C100.474 32.6478 100.077 32.7569 99.7839 32.9751C99.4942 33.1933 99.2986 33.451 99.197 33.7482L97.2896 33.4774C97.44 32.9506 97.6884 32.5105 98.0345 32.1568C98.3806 31.7994 98.8038 31.5323 99.3042 31.3555C99.8046 31.1749 100.358 31.0846 100.963 31.0846C101.381 31.0846 101.797 31.1335 102.21 31.2313C102.624 31.3291 103.002 31.4909 103.345 31.7166C103.687 31.9386 103.962 32.2415 104.169 32.6252C104.379 33.009 104.485 33.4886 104.485 34.0643V39.8655H102.521V38.6748H102.453C102.329 38.9156 102.154 39.1413 101.928 39.352C101.706 39.5589 101.426 39.7263 101.087 39.8543C100.753 39.9784 100.36 40.0405 99.908 40.0405ZM100.439 38.5394C100.849 38.5394 101.204 38.4585 101.505 38.2967C101.806 38.1312 102.037 37.913 102.199 37.6421C102.365 37.3712 102.448 37.0759 102.448 36.7561V35.7347C102.384 35.7873 102.274 35.8362 102.12 35.8814C101.97 35.9265 101.8 35.966 101.612 35.9999C101.424 36.0338 101.238 36.0639 101.054 36.0902C100.869 36.1165 100.709 36.1391 100.574 36.1579C100.269 36.1993 99.9965 36.267 99.7557 36.3611C99.5149 36.4551 99.3249 36.5868 99.1857 36.7561C99.0465 36.9216 98.9769 37.1361 98.9769 37.3994C98.9769 37.7756 99.1142 38.0597 99.3889 38.2516C99.6635 38.4434 100.013 38.5394 100.439 38.5394ZM110.32 40.0348C109.455 40.0348 108.712 39.8448 108.091 39.4649C107.474 39.0849 106.998 38.5601 106.663 37.8904C106.332 37.217 106.166 36.442 106.166 35.5654C106.166 34.685 106.336 33.9081 106.674 33.2347C107.013 32.5575 107.491 32.0308 108.108 31.6546C108.728 31.2746 109.462 31.0846 110.309 31.0846C111.012 31.0846 111.635 31.2144 112.177 31.474C112.722 31.7298 113.157 32.0929 113.48 32.5631C113.804 33.0297 113.988 33.5752 114.033 34.1997H112.081C112.002 33.7821 111.813 33.4341 111.516 33.1557C111.223 32.8735 110.83 32.7324 110.337 32.7324C109.919 32.7324 109.552 32.8453 109.236 33.071C108.92 33.293 108.674 33.6128 108.497 34.0304C108.324 34.448 108.238 34.9484 108.238 35.5315C108.238 36.1222 108.324 36.6301 108.497 37.0552C108.67 37.4766 108.913 37.802 109.225 38.0315C109.541 38.2572 109.912 38.3701 110.337 38.3701C110.638 38.3701 110.907 38.3136 111.144 38.2008C111.385 38.0841 111.586 37.9167 111.748 37.6985C111.909 37.4803 112.02 37.2151 112.081 36.9028H114.033C113.984 37.5161 113.804 38.0597 113.491 38.5337C113.179 39.004 112.754 39.3727 112.216 39.6398C111.678 39.9032 111.046 40.0348 110.32 40.0348ZM120.039 31.1975V32.7776H115.056V31.1975H120.039ZM116.286 29.1207H118.329V37.2583C118.329 37.533 118.37 37.7437 118.453 37.8904C118.54 38.0334 118.653 38.1312 118.792 38.1838C118.931 38.2365 119.085 38.2628 119.255 38.2628C119.383 38.2628 119.499 38.2534 119.604 38.2346C119.714 38.2158 119.796 38.1989 119.853 38.1838L120.197 39.7809C120.088 39.8185 119.932 39.8599 119.729 39.905C119.529 39.9502 119.285 39.9765 118.995 39.984C118.483 39.9991 118.022 39.922 117.612 39.7527C117.202 39.5796 116.877 39.3125 116.636 38.9513C116.399 38.5902 116.282 38.1387 116.286 37.5969V29.1207ZM125.435 40.0348C124.589 40.0348 123.855 39.8486 123.235 39.4762C122.614 39.1037 122.132 38.5826 121.79 37.913C121.451 37.2433 121.282 36.4608 121.282 35.5654C121.282 34.67 121.451 33.8855 121.79 33.2121C122.132 32.5387 122.614 32.0157 123.235 31.6433C123.855 31.2708 124.589 31.0846 125.435 31.0846C126.282 31.0846 127.016 31.2708 127.636 31.6433C128.257 32.0157 128.737 32.5387 129.075 33.2121C129.418 33.8855 129.589 34.67 129.589 35.5654C129.589 36.4608 129.418 37.2433 129.075 37.913C128.737 38.5826 128.257 39.1037 127.636 39.4762C127.016 39.8486 126.282 40.0348 125.435 40.0348ZM125.447 38.3983C125.906 38.3983 126.289 38.2723 126.598 38.0202C126.906 37.7644 127.136 37.422 127.286 36.9931C127.441 36.5642 127.518 36.0864 127.518 35.5597C127.518 35.0293 127.441 34.5496 127.286 34.1207C127.136 33.688 126.906 33.3438 126.598 33.088C126.289 32.8321 125.906 32.7042 125.447 32.7042C124.976 32.7042 124.585 32.8321 124.273 33.088C123.964 33.3438 123.733 33.688 123.579 34.1207C123.428 34.5496 123.353 35.0293 123.353 35.5597C123.353 36.0864 123.428 36.5642 123.579 36.9931C123.733 37.422 123.964 37.7644 124.273 38.0202C124.585 38.2723 124.976 38.3983 125.447 38.3983ZM131.323 39.8655V31.1975H133.304V32.6421H133.394C133.552 32.1418 133.823 31.7562 134.206 31.4853C134.594 31.2106 135.036 31.0733 135.533 31.0733C135.646 31.0733 135.772 31.079 135.911 31.0902C136.054 31.0978 136.172 31.1109 136.266 31.1297V33.009C136.18 32.9789 136.042 32.9525 135.854 32.93C135.67 32.9036 135.491 32.8904 135.318 32.8904C134.946 32.8904 134.611 32.9713 134.314 33.1331C134.02 33.2911 133.789 33.5112 133.62 33.7934C133.45 34.0755 133.366 34.401 133.366 34.7697V39.8655H131.323Z" fill="white"/>
<defs>
<clipPath id="clip0_1300_998">
<rect x="161.502" y="83.4208" width="18.1172" height="9.39408" rx="0.671006" fill="white"/>
</clipPath>
<clipPath id="clip1_1300_998">
<rect x="161.502" y="97.5118" width="18.1172" height="9.39408" rx="0.671006" fill="white"/>
</clipPath>
<clipPath id="clip2_1300_998">
<rect x="161.502" y="139.785" width="18.1172" height="9.39408" rx="0.671006" fill="white"/>
</clipPath>
</defs>
</svg>
